<?xml version="1.0" encoding="UTF-8" standalone="no"?>
<!-- Created with Inkscape (http://www.inkscape.org/) -->

<svg
   xmlns:dc="http://purl.org/dc/elements/1.1/"
   xmlns:cc="http://creativecommons.org/ns#"
   xmlns:rdf="http://www.w3.org/1999/02/22-rdf-syntax-ns#"
   xmlns:svg="http://www.w3.org/2000/svg"
   xmlns="http://www.w3.org/2000/svg"
   xmlns:sodipodi="http://sodipodi.sourceforge.net/DTD/sodipodi-0.dtd"
   xmlns:inkscape="http://www.inkscape.org/namespaces/inkscape"
   width="210mm"
   height="297mm"
   viewBox="0 0 744.09448819 1052.3622047"
   id="svg2"
   version="1.1"
   inkscape:version="0.91 r13725"
   sodipodi:docname="retina.svg">
  <defs
     id="defs4" />
  <sodipodi:namedview
     id="base"
     pagecolor="#ffffff"
     bordercolor="#666666"
     borderopacity="1.0"
     inkscape:pageopacity="0.0"
     inkscape:pageshadow="2"
     inkscape:zoom="1.1792857"
     inkscape:cx="375.10523"
     inkscape:cy="684.22575"
     inkscape:document-units="px"
     inkscape:current-layer="layer1"
     showgrid="false"
     inkscape:window-width="1920"
     inkscape:window-height="1080"
     inkscape:window-x="1366"
     inkscape:window-y="0"
     inkscape:window-maximized="0">
    <inkscape:grid
       type="xygrid"
       id="grid3360" />
  </sodipodi:namedview>
  <metadata
     id="metadata7">
    <rdf:RDF>
      <cc:Work
         rdf:about="">
        <dc:format>image/svg+xml</dc:format>
        <dc:type
           rdf:resource="http://purl.org/dc/dcmitype/StillImage" />
      </cc:Work>
    </rdf:RDF>
  </metadata>
  <g
     inkscape:label="Layer 1"
     inkscape:groupmode="layer"
     id="layer1">
    <text
       xml:space="preserve"
       style="font-style:normal;font-weight:normal;font-size:20px;line-height:125%;font-family:sans-serif;letter-spacing:0px;word-spacing:0px;fill:#000000;fill-opacity:1;stroke:none;stroke-width:1px;stroke-linecap:butt;stroke-linejoin:miter;stroke-opacity:1"
       x="178.65088"
       y="370.71329"
       id="text3380"
       sodipodi:linespacing="125%"><tspan
         sodipodi:role="line"
         id="tspan3382"
         x="178.65088"
         y="370.71329"></tspan></text>
    <rect
       style="fill:none;stroke:#000000;stroke-width:1.07368362"
       id="rect3420"
       width="569.96313"
       height="304.81781"
       x="85.089905"
       y="187.32796" />
    <circle
       style="fill:#000000;stroke:#000000"
       id="path3422"
       cx="115.05307"
       cy="257.14575"
       r="10" />
    <path
       style="fill:none;fill-rule:evenodd;stroke:#000000;stroke-width:1px;stroke-linecap:butt;stroke-linejoin:miter;stroke-opacity:1"
       d="m 115.05307,257.14575 40,20"
       id="path3424"
       inkscape:connector-curvature="0" />
    <path
       style="fill:none;fill-rule:evenodd;stroke:#000000;stroke-width:1px;stroke-linecap:butt;stroke-linejoin:miter;stroke-opacity:1"
       d="m 155.05307,267.14575 0,10"
       id="path3426"
       inkscape:connector-curvature="0" />
    <path
       style="fill:none;fill-rule:evenodd;stroke:#000000;stroke-width:1px;stroke-linecap:butt;stroke-linejoin:miter;stroke-opacity:1"
       d="m 145.05307,277.14575 10,0"
       id="path3428"
       inkscape:connector-curvature="0" />
    <rect
       style="fill:none;stroke:#000000"
       id="rect3430"
       width="110"
       height="50"
       x="155.05305"
       y="277.14575" />
    <rect
       style="fill:#ffffff;stroke:#000000"
       id="rect3432"
       width="90"
       height="54.999977"
       x="35.053066"
       y="272.14575" />
    <path
       style="fill:none;fill-rule:evenodd;stroke:#000000;stroke-width:1px;stroke-linecap:butt;stroke-linejoin:miter;stroke-opacity:1"
       d="m 125.05307,307.14575 30,0"
       id="path3442"
       inkscape:connector-curvature="0" />
    <path
       style="fill:none;fill-rule:evenodd;stroke:#000000;stroke-width:1px;stroke-linecap:butt;stroke-linejoin:miter;stroke-opacity:1"
       d="m 145.05307,297.14575 10,10"
       id="path3444"
       inkscape:connector-curvature="0" />
    <path
       style="fill:none;fill-rule:evenodd;stroke:#000000;stroke-width:1px;stroke-linecap:butt;stroke-linejoin:miter;stroke-opacity:1"
       d="m 145.05307,317.14575 10,-10"
       id="path3446"
       inkscape:connector-curvature="0" />
    <text
       xml:space="preserve"
       style="font-style:normal;font-weight:normal;font-size:20px;line-height:125%;font-family:sans-serif;letter-spacing:0px;word-spacing:0px;fill:#000000;fill-opacity:1;stroke:none;stroke-width:1px;stroke-linecap:butt;stroke-linejoin:miter;stroke-opacity:1"
       x="155.05307"
       y="297.07983"
       id="text4887"
       sodipodi:linespacing="125%"><tspan
         sodipodi:role="line"
         x="155.05307"
         y="297.07983"
         id="tspan4889"><tspan
           x="155.05307"
           y="297.07983"
           id="tspan4891">Barrel </tspan></tspan><tspan
         sodipodi:role="line"
         x="155.05307"
         y="322.07983"
         id="tspan4893"><tspan
           x="155.05307"
           y="322.07983"
           id="tspan4895">Transform</tspan></tspan></text>
    <rect
       style="fill:#ffffff;stroke:#000000;stroke-width:1.281672"
       id="rect3456"
       width="88.519119"
       height="50.104931"
       x="35.193905"
       y="337.28659" />
    <path
       style="fill:none;fill-rule:evenodd;stroke:#000000;stroke-width:1px;stroke-linecap:butt;stroke-linejoin:miter;stroke-opacity:1"
       d="m 125.05307,347.14575 30,-25"
       id="path3470"
       inkscape:connector-curvature="0" />
    <path
       style="fill:none;fill-rule:evenodd;stroke:#000000;stroke-width:1px;stroke-linecap:butt;stroke-linejoin:miter;stroke-opacity:1"
       d="m 145.05307,322.14575 10,0"
       id="path3472"
       inkscape:connector-curvature="0" />
    <path
       style="fill:none;fill-rule:evenodd;stroke:#000000;stroke-width:1px;stroke-linecap:butt;stroke-linejoin:miter;stroke-opacity:1"
       d="m 155.05307,332.14575 0,-10"
       id="path3474"
       inkscape:connector-curvature="0" />
    <path
       style="opacity:0;fill:#4d4d4d;stroke:#000000"
       id="path4280"
       d="m 130.58091,384.6385 c 0.42468,0.0907 0.84645,0.19631 1.27403,0.27216 2.10074,0.37269 2.26377,0.26952 4.52673,0.75788 4.2152,0.90966 8.29368,2.33341 12.3831,3.67612 12.72425,4.28085 25.18155,9.30869 37.54846,14.51988 6.08254,2.49054 11.96675,5.41728 17.78789,8.45872 1.29447,0.67633 2.56616,1.3975 3.87939,2.03664 1.29896,0.6322 2.63566,1.18373 3.9535,1.7756 5.16455,2.13364 10.57377,3.68904 16.05964,4.74573 2.04713,0.39432 5.79929,0.94313 7.87562,1.25815 5.45074,0.77173 10.95053,1.11075 16.44858,1.30339 1.51105,0.0529 3.0223,0.13516 4.53424,0.1238 1.52196,-0.0114 3.04132,-0.12809 4.56197,-0.19214 7.1882,-0.63397 13.9686,-3.1054 20.33439,-6.41447 0.33532,-0.17431 0.59378,-0.46784 0.89725,-0.69306 1.80755,-1.34142 3.62376,-2.67115 5.43563,-4.00673 1.73412,-1.60885 3.5565,-3.12751 5.20235,-4.82654 5.30694,-5.47843 9.843,-11.85119 13.62589,-18.4608 2.77625,-4.85076 4.34748,-8.58893 6.65545,-13.64321 2.36222,-5.58304 4.51136,-11.26115 6.30695,-17.05308 0.6937,-2.23762 1.42596,-4.8034 1.84001,-7.14266 0.12989,-0.73386 0.17363,-1.48038 0.26044,-2.22056 -0.0855,-0.84251 0.0377,-2.37661 -0.88557,-2.9333 -0.71832,-0.43308 -2.01117,-0.10735 -2.74474,-0.0243 -3.7851,0.7855 -7.45752,2.03876 -11.15513,3.15383 -4.16089,1.43809 -8.48701,2.22601 -12.84663,2.74117 -2.10194,0.32702 -4.32982,-0.0437 -6.36434,0.70612 -0.3228,0.11897 -0.61499,0.30855 -0.92248,0.46283 1.41703,-0.76176 2.74647,-1.71574 4.25109,-2.28527 0.51226,-0.19391 -0.83203,0.71771 -1.19455,1.12829 -1.88639,2.13644 -3.0023,4.85611 -4.11599,7.43608 -0.27903,0.74286 -0.56159,1.48441 -0.83707,2.22859 -0.65804,1.77767 -1.06949,2.85401 -1.59469,4.67902 -0.68359,2.37538 -1.13657,4.78398 -1.55053,7.21708 -0.64814,5.17224 -1.26943,10.3473 -1.98525,15.51074 -1.06713,6.73238 -2.85523,13.31797 -4.93965,19.79875 -2.47176,7.13734 -5.26626,14.29886 -10.39191,20.00502 -1.21128,1.34846 -2.6058,2.52032 -3.9087,3.78048 -7.53028,6.09975 -16.21596,10.70419 -25.57267,13.23008 -4.29143,1.15849 -6.62509,1.44527 -10.95275,2.17032 -5.14515,0.71108 -10.41328,1.559 -15.55353,0.33035 -2.91831,-0.69754 -4.68702,-1.55782 -7.47242,-2.70318 -1.33342,-0.72569 -2.70625,-1.38325 -4.00027,-2.17708 -5.87467,-3.60387 -11.13842,-8.44838 -15.40162,-13.85337 -1.14259,-1.44861 -2.14391,-3.00325 -3.21587,-4.50488 -0.89451,-1.65227 -1.89386,-3.25194 -2.68353,-4.9568 -3.05689,-6.59961 -4.8863,-14.27511 -5.04107,-21.55329 -0.0361,-1.69868 0.14409,-3.39508 0.21613,-5.09262 1.02988,-7.7571 3.78717,-14.62083 8.32477,-20.98594 0.6932,-0.97238 1.48081,-1.87387 2.22122,-2.81081 2.47214,-2.79823 5.09005,-5.51936 8.2155,-7.59031 2.55492,-1.57706 5.18826,-3.02992 7.81287,-4.48313 0.94997,-0.52598 1.99147,-0.93676 2.97575,-1.39507 1.63687,-0.77496 3.36545,-1.31196 5.12607,-1.71687 0,0 -4.92264,3.75971 -4.92264,3.75971 l 0,0 c -1.73372,0.44785 -3.43121,1.02131 -5.04411,1.80766 -0.3277,0.15308 -0.65585,0.30521 -0.9831,0.45925 -0.33237,0.15644 -0.66512,0.31212 -0.99576,0.47221 -4.30554,2.08464 6.33156,-3.81469 2.58826,-1.60564 -0.25688,0.1516 -0.51458,0.30179 -0.77187,0.45268 -3.30218,2.0156 -6.0807,4.72699 -8.68335,7.57142 -0.77211,0.93043 -1.59524,1.82078 -2.31632,2.79129 -4.60166,6.19343 -7.49177,13.14454 -8.59448,20.78053 -0.0941,1.68257 -0.29992,3.36259 -0.2824,5.0477 0.0746,7.16968 1.86839,14.87993 4.89056,21.37344 0.7831,1.68259 1.77459,3.2601 2.66189,4.89015 1.07006,1.48233 2.07221,3.01613 3.21019,4.44699 4.25924,5.3554 9.49946,10.1314 15.40421,13.61271 1.3017,0.76746 2.68218,1.39271 4.02327,2.08906 2.94389,1.15166 4.41849,1.86895 7.48236,2.53831 5.02685,1.09821 10.17604,0.33707 15.20503,-0.30093 1.74779,-0.2924 3.50599,-0.52825 5.24338,-0.87719 3.85895,-0.77504 7.53031,-1.71194 11.21877,-3.10892 1.86025,-0.70455 3.6465,-1.59086 5.46712,-2.39227 0.17937,-0.079 0.37276,-0.13556 0.53273,-0.24879 1.54966,-1.09687 3.05847,-2.25034 4.58771,-3.37551 1.29536,-1.22751 2.68268,-2.36473 3.88606,-3.68252 5.16352,-5.65439 7.85389,-12.64229 10.3122,-19.75334 0.39807,-1.24305 0.8212,-2.47836 1.19422,-3.72916 0.98492,-3.30261 0.98939,-3.66703 1.77576,-6.92599 0.71718,-2.97221 1.41156,-5.94259 1.84965,-8.97314 0.69871,-5.1615 1.29866,-10.33574 1.93652,-15.50504 0.39429,-2.45985 0.84007,-4.88758 1.51168,-7.29038 0.55998,-2.00345 0.86149,-2.75235 1.56681,-4.69992 0.27193,-0.75087 0.54693,-1.50061 0.8204,-2.25091 1.08038,-2.61028 2.16304,-5.34941 3.9181,-7.60125 1.93029,-2.47668 4.53544,-3.26647 7.43153,-5.01992 0.33327,-0.12418 0.65794,-0.27454 0.99983,-0.37254 2.04854,-0.5872 4.23057,-0.25477 6.31479,-0.5904 4.31016,-0.49665 8.56566,-1.33149 12.67714,-2.74863 3.76351,-1.16143 7.50562,-2.49276 11.39298,-3.17515 1.04359,-0.0667 2.27073,-0.26647 3.15035,0.49224 0.96488,0.83225 0.86772,2.37737 0.90246,3.48356 -0.12293,0.77902 -0.2032,1.56597 -0.36878,2.33704 -0.5115,2.38199 -1.36803,5.06039 -2.12328,7.33466 -1.94049,5.84335 -4.15177,11.59388 -6.59287,17.24634 -2.23079,4.85843 -4.03808,9.05886 -6.68248,13.72794 -3.72333,6.57409 -8.2559,13.048 -13.4639,18.53724 -1.62119,1.70875 -3.41908,3.24072 -5.12863,4.86108 -1.79089,1.34519 -3.4927,2.818 -5.37269,4.03557 -7.99783,5.1798 -16.45181,9.8646 -25.90071,11.69821 -1.59717,0.30994 -3.22466,0.43539 -4.837,0.65309 -1.52927,0.0551 -3.05757,0.15741 -4.58781,0.16523 -1.51923,0.008 -3.03779,-0.068 -4.5562,-0.11853 -5.53198,-0.18398 -11.06883,-0.50012 -16.5494,-1.30938 -2.33342,-0.36647 -5.55743,-0.84883 -7.86538,-1.30959 -5.50404,-1.09883 -10.93129,-2.66632 -16.10148,-4.86002 -1.32246,-0.60216 -2.66259,-1.16692 -3.96738,-1.80647 -0.29799,-0.14606 -7.47012,-3.93637 -7.75902,-4.08586 -4.47323,-2.3146 -9.00413,-4.51881 -13.61336,-6.55073 -12.3482,-5.30432 -24.81052,-10.40077 -37.65919,-14.38126 -3.72311,-1.11733 -5.72759,-1.78256 -9.39439,-2.66405 -2.65509,-0.63828 -5.30247,-0.98151 -7.99977,-1.34645 -0.46968,-0.0635 -0.93744,-0.14048 -1.40616,-0.21072 0,0 5.164,-3.58201 5.164,-3.58201 z"
       inkscape:connector-curvature="0" />
    <path
       style="fill:none;fill-rule:evenodd;stroke:#000000;stroke-width:5;stroke-linecap:butt;stroke-linejoin:miter;stroke-miterlimit:4;stroke-dasharray:none;stroke-opacity:1"
       d="m 305.05307,272.14575 0,60"
       id="path4286"
       inkscape:connector-curvature="0" />
    <path
       style="fill:none;fill-rule:evenodd;stroke:#000000;stroke-width:1px;stroke-linecap:butt;stroke-linejoin:miter;stroke-opacity:1"
       d="m 265.05307,302.14575 40,0"
       id="path4290"
       inkscape:connector-curvature="0" />
    <path
       style="fill:none;fill-rule:evenodd;stroke:#000000;stroke-width:1px;stroke-linecap:butt;stroke-linejoin:miter;stroke-opacity:1"
       d="m 295.05307,292.14575 10,10"
       id="path4292"
       inkscape:connector-curvature="0" />
    <path
       style="fill:none;fill-rule:evenodd;stroke:#000000;stroke-width:1px;stroke-linecap:butt;stroke-linejoin:miter;stroke-opacity:1"
       d="m 295.05307,312.14575 10,-10"
       id="path4294"
       inkscape:connector-curvature="0" />
    <path
       style="fill:none;fill-rule:evenodd;stroke:#000000;stroke-width:1px;stroke-linecap:butt;stroke-linejoin:miter;stroke-opacity:1"
       d="m 305.05307,272.14575 35,0"
       id="path4296"
       inkscape:connector-curvature="0" />
    <path
       style="fill:none;fill-rule:evenodd;stroke:#000000;stroke-width:1px;stroke-linecap:butt;stroke-linejoin:miter;stroke-opacity:1"
       d="m 335.05307,267.14575 5,5"
       id="path4298"
       inkscape:connector-curvature="0" />
    <path
       style="fill:none;fill-rule:evenodd;stroke:#000000;stroke-width:1px;stroke-linecap:butt;stroke-linejoin:miter;stroke-opacity:1"
       d="m 335.05307,277.14575 5,-5"
       id="path4300"
       inkscape:connector-curvature="0" />
    <path
       style="fill:none;fill-rule:evenodd;stroke:#000000;stroke-width:1px;stroke-linecap:butt;stroke-linejoin:miter;stroke-opacity:1"
       d="m 305.05307,332.14575 35,0"
       id="path4302"
       inkscape:connector-curvature="0" />
    <path
       style="fill:none;fill-rule:evenodd;stroke:#000000;stroke-width:1px;stroke-linecap:butt;stroke-linejoin:miter;stroke-opacity:1"
       d="m 335.05307,327.14575 5,5"
       id="path4304"
       inkscape:connector-curvature="0" />
    <path
       style="fill:none;fill-rule:evenodd;stroke:#000000;stroke-width:1px;stroke-linecap:butt;stroke-linejoin:miter;stroke-opacity:1"
       d="m 335.05307,337.14575 5,-5"
       id="path4306"
       inkscape:connector-curvature="0" />
    <rect
       style="opacity:0;fill:#4d4d4d;stroke:#000000;stroke-width:5;stroke-miterlimit:4;stroke-dasharray:none"
       id="rect4308"
       width="45"
       height="35"
       x="340.05307"
       y="312.14575" />
    <rect
       style="opacity:1;fill:none;stroke:#000000;stroke-width:1;stroke-miterlimit:4;stroke-dasharray:none;stroke-opacity:1"
       id="rect4322"
       width="115"
       height="49.999992"
       x="340.05307"
       y="307.14575" />
    <rect
       style="opacity:1;fill:none;stroke:#000000;stroke-width:1;stroke-miterlimit:4;stroke-dasharray:none;stroke-opacity:1"
       id="rect4334"
       width="115"
       height="54.999992"
       x="340.05307"
       y="247.14577" />
    <text
       xml:space="preserve"
       style="font-style:normal;font-weight:normal;font-size:20px;line-height:125%;font-family:sans-serif;letter-spacing:0px;word-spacing:0px;fill:#000000;fill-opacity:1;stroke:none;stroke-width:1px;stroke-linecap:butt;stroke-linejoin:miter;stroke-opacity:1"
       x="123.65089"
       y="300.71329"
       id="text4344"
       sodipodi:linespacing="125%"><tspan
         sodipodi:role="line"
         id="tspan4346"
         x="123.65089"
         y="300.71329"></tspan><tspan
         sodipodi:role="line"
         x="123.65089"
         y="325.71329"
         id="tspan4348" /></text>
    <rect
       style="opacity:1;fill:#ffffff;stroke:#000000;stroke-width:1;stroke-miterlimit:4;stroke-dasharray:none;stroke-opacity:1"
       id="rect4370"
       width="100"
       height="79.999992"
       x="25.053066"
       y="392.14575" />
    <flowRoot
       xml:space="preserve"
       id="flowRoot4372"
       style="font-style:normal;font-weight:normal;font-size:20px;line-height:125%;font-family:sans-serif;letter-spacing:0px;word-spacing:0px;fill:#000000;fill-opacity:1;stroke:none;stroke-width:1px;stroke-linecap:butt;stroke-linejoin:miter;stroke-opacity:1"
       transform="translate(-1.3491135,-1.6489165)"><flowRegion
         id="flowRegion4374"><rect
           id="rect4376"
           width="90"
           height="50"
           x="100"
           y="407.36221" /></flowRegion><flowPara
         id="flowPara4378">Inhibition</flowPara><flowPara
         id="flowPara4380" /></flowRoot>    <path
       style="fill:none;fill-rule:evenodd;stroke:#000000;stroke-width:1px;stroke-linecap:butt;stroke-linejoin:miter;stroke-opacity:1"
       d="m 125.05307,417.14575 265,0"
       id="path4402"
       inkscape:connector-curvature="0" />
    <path
       style="fill:none;fill-rule:evenodd;stroke:#000000;stroke-width:1px;stroke-linecap:butt;stroke-linejoin:miter;stroke-opacity:1"
       d="m 390.05307,417.14575 0,-60"
       id="path4404"
       inkscape:connector-curvature="0" />
    <path
       style="fill:none;fill-rule:evenodd;stroke:#000000;stroke-width:1px;stroke-linecap:butt;stroke-linejoin:miter;stroke-opacity:1"
       d="m 390.05307,357.14575 5,10"
       id="path4406"
       inkscape:connector-curvature="0" />
    <path
       style="fill:none;fill-rule:evenodd;stroke:#000000;stroke-width:1px;stroke-linecap:butt;stroke-linejoin:miter;stroke-opacity:1"
       d="m 390.05307,357.14575 -5,10"
       id="path4408"
       inkscape:connector-curvature="0" />
    <path
       style="fill:none;fill-rule:evenodd;stroke:#000000;stroke-width:1px;stroke-linecap:butt;stroke-linejoin:miter;stroke-opacity:1"
       d="m 125.05307,412.14575 260,0 0,-55"
       id="path4410"
       inkscape:connector-curvature="0" />
    <path
       style="fill:none;fill-rule:evenodd;stroke:#000000;stroke-width:1px;stroke-linecap:butt;stroke-linejoin:miter;stroke-opacity:1"
       d="m 385.05307,307.14575 0,-5"
       id="path4412"
       inkscape:connector-curvature="0" />
    <path
       style="fill:none;fill-rule:evenodd;stroke:#000000;stroke-width:1px;stroke-linecap:butt;stroke-linejoin:miter;stroke-opacity:1"
       d="m 385.05307,302.14575 5,5"
       id="path4414"
       inkscape:connector-curvature="0" />
    <path
       style="fill:none;fill-rule:evenodd;stroke:#000000;stroke-width:1px;stroke-linecap:butt;stroke-linejoin:miter;stroke-opacity:1"
       d="m 385.05307,302.14575 -5,5"
       id="path4416"
       inkscape:connector-curvature="0" />
    <path
       style="fill:none;fill-rule:evenodd;stroke:#000000;stroke-width:1px;stroke-linecap:butt;stroke-linejoin:miter;stroke-opacity:1"
       d="m 455.05307,272.14575 30,0"
       id="path4444"
       inkscape:connector-curvature="0" />
    <path
       style="fill:none;fill-rule:evenodd;stroke:#000000;stroke-width:1px;stroke-linecap:butt;stroke-linejoin:miter;stroke-opacity:1"
       d="m 480.05307,267.14575 5,5"
       id="path4446"
       inkscape:connector-curvature="0" />
    <path
       style="fill:none;fill-rule:evenodd;stroke:#000000;stroke-width:1px;stroke-linecap:butt;stroke-linejoin:miter;stroke-opacity:1"
       d="m 480.05307,277.14575 5,-5"
       id="path4448"
       inkscape:connector-curvature="0" />
    <path
       style="fill:none;fill-rule:evenodd;stroke:#000000;stroke-width:1px;stroke-linecap:butt;stroke-linejoin:miter;stroke-opacity:1"
       d="m 455.05307,332.14575 30,0"
       id="path4450"
       inkscape:connector-curvature="0" />
    <path
       style="fill:none;fill-rule:evenodd;stroke:#000000;stroke-width:1px;stroke-linecap:butt;stroke-linejoin:miter;stroke-opacity:1"
       d="m 480.05307,327.14575 5,5"
       id="path4452"
       inkscape:connector-curvature="0" />
    <path
       style="fill:none;fill-rule:evenodd;stroke:#000000;stroke-width:1px;stroke-linecap:butt;stroke-linejoin:miter;stroke-opacity:1"
       d="m 480.05307,337.14575 5,-5"
       id="path4454"
       inkscape:connector-curvature="0" />
    <path
       style="fill:none;fill-rule:evenodd;stroke:#000000;stroke-width:5;stroke-linecap:butt;stroke-linejoin:miter;stroke-miterlimit:4;stroke-dasharray:none;stroke-opacity:1"
       d="m 485.05307,272.14575 0,60"
       id="path4456"
       inkscape:connector-curvature="0" />
    <rect
       style="opacity:1;fill:#ffffff;stroke:#000000;stroke-width:1;stroke-linejoin:round;stroke-miterlimit:4;stroke-dasharray:none;stroke-opacity:1"
       id="rect4464"
       width="90"
       height="54.999992"
       x="620.05304"
       y="267.14575" />
    <rect
       style="opacity:1;fill:#ffffff;stroke:#000000;stroke-width:1;stroke-linejoin:round;stroke-miterlimit:4;stroke-dasharray:none;stroke-opacity:1"
       id="rect4488"
       width="110"
       height="129.99998"
       x="500.05307"
       y="252.14577" />
    <path
       style="fill:none;fill-rule:evenodd;stroke:#000000;stroke-width:1px;stroke-linecap:butt;stroke-linejoin:miter;stroke-opacity:1"
       d="m 485.05307,302.14575 15,0"
       id="path4490"
       inkscape:connector-curvature="0" />
    <path
       style="fill:none;fill-rule:evenodd;stroke:#000000;stroke-width:1px;stroke-linecap:butt;stroke-linejoin:miter;stroke-opacity:1"
       d="m 495.05307,297.14575 5,5"
       id="path4492"
       inkscape:connector-curvature="0" />
    <path
       style="fill:none;fill-rule:evenodd;stroke:#000000;stroke-width:1px;stroke-linecap:butt;stroke-linejoin:miter;stroke-opacity:1"
       d="m 500.05307,302.14575 -5,5"
       id="path4494"
       inkscape:connector-curvature="0" />
    <path
       style="fill:none;fill-rule:evenodd;stroke:#000000;stroke-width:1px;stroke-linecap:butt;stroke-linejoin:miter;stroke-opacity:1"
       d="m 485.05307,282.14575 10,0 0,-45 140,0 0,30 5,-5"
       id="path4496"
       inkscape:connector-curvature="0" />
    <path
       style="fill:none;fill-rule:evenodd;stroke:#000000;stroke-width:1px;stroke-linecap:butt;stroke-linejoin:miter;stroke-opacity:1"
       d="m 635.05307,267.14575 -5,-5"
       id="path4498"
       inkscape:connector-curvature="0" />
    <rect
       style="opacity:1;fill:#ffffff;stroke:#000000;stroke-width:1;stroke-linejoin:round;stroke-miterlimit:4;stroke-dasharray:none;stroke-opacity:1"
       id="rect4500"
       width="105"
       height="89.999992"
       x="620.05304"
       y="327.14575" />
    <path
       style="fill:none;fill-rule:evenodd;stroke:#000000;stroke-width:1px;stroke-linecap:butt;stroke-linejoin:miter;stroke-opacity:1"
       d="m 610.05307,362.14575 10,0 -5,-5"
       id="path4514"
       inkscape:connector-curvature="0" />
    <path
       style="fill:none;fill-rule:evenodd;stroke:#000000;stroke-width:1px;stroke-linecap:butt;stroke-linejoin:miter;stroke-opacity:1"
       d="m 620.05307,362.14575 -5,5"
       id="path4516"
       inkscape:connector-curvature="0" />
    <circle
       style="opacity:1;fill:#ffffff;stroke:#000000;stroke-width:1;stroke-linejoin:round;stroke-miterlimit:4;stroke-dasharray:none;stroke-opacity:1"
       id="path4526"
       cx="582.55304"
       cy="439.64575"
       r="12.5" />
    <circle
       style="opacity:1;fill:#000000;stroke:#000000;stroke-width:1;stroke-linejoin:round;stroke-miterlimit:4;stroke-dasharray:none;stroke-opacity:1"
       id="path4528"
       cx="582.55304"
       cy="439.64575"
       r="7.5" />
    <path
       style="fill:none;fill-rule:evenodd;stroke:#000000;stroke-width:1px;stroke-linecap:butt;stroke-linejoin:miter;stroke-opacity:1"
       d="m 545.05307,382.14575 35,45 0,-15"
       id="path4532"
       inkscape:connector-curvature="0" />
    <path
       style="fill:none;fill-rule:evenodd;stroke:#000000;stroke-width:1px;stroke-linecap:butt;stroke-linejoin:miter;stroke-opacity:1"
       d="m 580.05307,427.14575 -15.18446,0.0301"
       id="path4534"
       inkscape:connector-curvature="0"
       sodipodi:nodetypes="cc" />
  </g>
  <g
     inkscape:groupmode="layer"
     id="layer2"
     inkscape:label="text">
    <text
       xml:space="preserve"
       style="font-style:normal;font-weight:normal;font-size:20px;line-height:125%;font-family:sans-serif;letter-spacing:0px;word-spacing:0px;fill:#000000;fill-opacity:1;stroke:none;stroke-width:1px;stroke-linecap:butt;stroke-linejoin:miter;stroke-opacity:1"
       x="342.11633"
       y="325.77014"
       id="text4775"
       sodipodi:linespacing="125%"><tspan
         sodipodi:role="line"
         x="342.11633"
         y="325.77014"
         id="tspan4777"><tspan
           x="342.11633"
           y="325.77014"
           id="tspan4779">Black Hat</tspan><tspan
           dx="0"
           x="437.7804"
           y="325.77014"
           id="tspan4781" /></tspan><tspan
         sodipodi:role="line"
         x="342.11633"
         y="350.77014"
         id="tspan4783"><tspan
           x="342.11633"
           y="350.77014"
           id="tspan4785">Transforms</tspan><tspan
           dx="0"
           x="452.11633"
           y="350.77014"
           id="tspan4787" /></tspan></text>
    <text
       xml:space="preserve"
       style="font-style:normal;font-weight:normal;font-size:20px;line-height:125%;font-family:sans-serif;letter-spacing:0px;word-spacing:0px;fill:#000000;fill-opacity:1;stroke:none;stroke-width:1px;stroke-linecap:butt;stroke-linejoin:miter;stroke-opacity:1"
       x="342.11633"
       y="265.77014"
       id="text4789"
       sodipodi:linespacing="125%"><tspan
         sodipodi:role="line"
         x="342.11633"
         y="265.77014"
         id="tspan4791"><tspan
           x="342.11633"
           y="265.77014"
           id="tspan4793">Top Hat </tspan></tspan><tspan
         sodipodi:role="line"
         x="342.11633"
         y="290.77014"
         id="tspan4795"><tspan
           x="342.11633"
           y="290.77014"
           id="tspan4797">Transforms</tspan></tspan></text>
    <text
       xml:space="preserve"
       style="font-style:normal;font-weight:normal;font-size:20px;line-height:125%;font-family:sans-serif;letter-spacing:0px;word-spacing:0px;fill:#000000;fill-opacity:1;stroke:none;stroke-width:1px;stroke-linecap:butt;stroke-linejoin:miter;stroke-opacity:1"
       x="352.6864"
       y="231.08597"
       id="text4799"
       sodipodi:linespacing="125%"><tspan
         sodipodi:role="line"
         x="352.6864"
         y="231.08597"
         id="tspan4801"><tspan
           x="352.6864"
           y="231.08597"
           style="font-style:italic;font-size:7.5px"
           id="tspan4803">Todo: define transforms</tspan></tspan></text>
    <text
       xml:space="preserve"
       style="font-style:normal;font-weight:normal;font-size:20px;line-height:125%;font-family:sans-serif;letter-spacing:0px;word-spacing:0px;fill:#000000;fill-opacity:1;stroke:none;stroke-width:1px;stroke-linecap:butt;stroke-linejoin:miter;stroke-opacity:1"
       x="137.11635"
       y="433.31079"
       id="text4805"
       sodipodi:linespacing="125%"><tspan
         sodipodi:role="line"
         x="137.11635"
         y="433.31079"
         id="tspan4807"><tspan
           x="137.11635"
           y="433.31079"
           style="font-size:7.5px"
           id="tspan4809">(Note: black hat and top hat transforms work independently on each color. The </tspan></tspan><tspan
         sodipodi:role="line"
         x="137.11635"
         y="442.68579"
         id="tspan4811"><tspan
           x="137.11635"
           y="442.68579"
           style="font-size:7.5px"
           id="tspan4813">inhibition image carries the inhibition data for each color of both of these transforms </tspan></tspan><tspan
         sodipodi:role="line"
         x="137.11635"
         y="452.06079"
         id="tspan4815"><tspan
           x="137.11635"
           y="452.06079"
           style="font-size:7.5px"
           id="tspan4817">as well.)</tspan></tspan></text>
    <text
       xml:space="preserve"
       style="font-style:normal;font-weight:normal;font-size:20px;line-height:125%;font-family:sans-serif;letter-spacing:0px;word-spacing:0px;fill:#000000;fill-opacity:1;stroke:none;stroke-width:1px;stroke-linecap:butt;stroke-linejoin:miter;stroke-opacity:1"
       x="622.11633"
       y="285.77014"
       id="text4819"
       sodipodi:linespacing="125%"><tspan
         sodipodi:role="line"
         x="622.11633"
         y="285.77014"
         id="tspan4821"><tspan
           x="622.11633"
           y="285.77014"
           id="tspan4823">Saliency</tspan><tspan
           dx="0"
           x="706.02258"
           y="285.77014"
           id="tspan4825" /></tspan><tspan
         sodipodi:role="line"
         x="622.11633"
         y="310.77014"
         id="tspan4827"><tspan
           x="622.11633"
           y="310.77014"
           id="tspan4829">Image</tspan></tspan></text>
    <text
       xml:space="preserve"
       style="font-style:normal;font-weight:normal;font-size:20px;line-height:125%;font-family:sans-serif;letter-spacing:0px;word-spacing:0px;fill:#000000;fill-opacity:1;stroke:none;stroke-width:1px;stroke-linecap:butt;stroke-linejoin:miter;stroke-opacity:1"
       x="507.90924"
       y="272.63489"
       id="text4476"
       sodipodi:linespacing="125%"><tspan
         sodipodi:role="line"
         id="tspan4478"
         x="507.90924"
         y="272.63489">Compute</tspan><tspan
         sodipodi:role="line"
         x="507.90924"
         y="297.63489"
         id="tspan4480">Retinal</tspan><tspan
         sodipodi:role="line"
         x="507.90924"
         y="322.63489"
         id="tspan4482">Iinhibition</tspan><tspan
         sodipodi:role="line"
         x="507.90924"
         y="347.63489"
         id="tspan4484">Image</tspan><tspan
         sodipodi:role="line"
         x="507.90924"
         y="372.63489"
         id="tspan4486">Additions</tspan></text>
    <text
       xml:space="preserve"
       style="font-style:normal;font-weight:normal;font-size:20px;line-height:125%;font-family:sans-serif;letter-spacing:0px;word-spacing:0px;fill:#000000;fill-opacity:1;stroke:none;stroke-width:1px;stroke-linecap:butt;stroke-linejoin:miter;stroke-opacity:1"
       x="622.11633"
       y="345.77014"
       id="text4831"
       sodipodi:linespacing="125%"><tspan
         sodipodi:role="line"
         x="622.11633"
         y="345.77014"
         id="tspan4833"><tspan
           x="622.11633"
           y="345.77014"
           id="tspan4835">Retinal</tspan><tspan
           dx="0"
           x="691.33508"
           y="345.77014"
           id="tspan4837" /></tspan><tspan
         sodipodi:role="line"
         x="622.11633"
         y="370.77014"
         id="tspan4839"><tspan
           x="622.11633"
           y="370.77014"
           id="tspan4841">Inhibition</tspan><tspan
           dx="0"
           x="715.51477"
           y="370.77014"
           id="tspan4843" /></tspan><tspan
         sodipodi:role="line"
         x="622.11633"
         y="395.77014"
         id="tspan4845"><tspan
           x="622.11633"
           y="395.77014"
           id="tspan4847">Image</tspan></tspan></text>
    <text
       xml:space="preserve"
       style="font-style:normal;font-weight:normal;font-size:20px;line-height:125%;font-family:sans-serif;letter-spacing:0px;word-spacing:0px;fill:#000000;fill-opacity:1;stroke:none;stroke-width:1px;stroke-linecap:butt;stroke-linejoin:miter;stroke-opacity:1"
       x="36.10421"
       y="358.34744"
       id="text4849"
       sodipodi:linespacing="125%"><tspan
         sodipodi:role="line"
         x="36.10421"
         y="358.34744"
         id="tspan4851"><tspan
           x="36.10421"
           y="358.34744"
           id="tspan4853">Barrel </tspan></tspan><tspan
         sodipodi:role="line"
         x="36.10421"
         y="383.34744"
         id="tspan4855"><tspan
           x="36.10421"
           y="383.34744"
           id="tspan4857">Data</tspan></tspan></text>
    <text
       xml:space="preserve"
       style="font-style:normal;font-weight:normal;font-size:20px;line-height:125%;font-family:sans-serif;letter-spacing:0px;word-spacing:0px;fill:#000000;fill-opacity:1;stroke:none;stroke-width:1px;stroke-linecap:butt;stroke-linejoin:miter;stroke-opacity:1"
       x="36.10421"
       y="293.34744"
       id="text4859"
       sodipodi:linespacing="125%"><tspan
         sodipodi:role="line"
         x="36.10421"
         y="293.34744"
         id="tspan4861"><tspan
           x="36.10421"
           y="293.34744"
           id="tspan4863">Input </tspan></tspan><tspan
         sodipodi:role="line"
         x="36.10421"
         y="318.34744"
         id="tspan4865"><tspan
           x="36.10421"
           y="318.34744"
           id="tspan4867">Image</tspan></tspan></text>
    <text
       xml:space="preserve"
       style="font-style:normal;font-weight:normal;font-size:20px;line-height:125%;font-family:sans-serif;letter-spacing:0px;word-spacing:0px;fill:#000000;fill-opacity:1;stroke:none;stroke-width:1px;stroke-linecap:butt;stroke-linejoin:miter;stroke-opacity:1"
       x="26.10421"
       y="413.34744"
       id="text4869"
       sodipodi:linespacing="125%"><tspan
         sodipodi:role="line"
         x="26.10421"
         y="413.34744"
         id="tspan4871"><tspan
           x="26.10421"
           y="413.34744"
           id="tspan4873">Retinal</tspan><tspan
           dx="0"
           x="95.32296"
           y="413.34744"
           id="tspan4875" /></tspan><tspan
         sodipodi:role="line"
         x="26.10421"
         y="438.34744"
         id="tspan4877"><tspan
           x="26.10421"
           y="438.34744"
           id="tspan4879">Inhibition</tspan><tspan
           dx="0"
           x="119.50265"
           y="438.34744"
           id="tspan4881" /></tspan><tspan
         sodipodi:role="line"
         x="26.10421"
         y="463.34744"
         id="tspan4883"><tspan
           x="26.10421"
           y="463.34744"
           id="tspan4885">Image</tspan></tspan></text>
  </g>
</svg>
